<?xml version="1.0" encoding="UTF-8"?>
<svg viewBox="0 0 577 577" xmlns="http://www.w3.org/2000/svg">
 <path d="m0 577v-577h577v577h-577zm576.5-0.5v-0.5 0.5zm-575.5-0.5h575v-575h-575v575z"/>
 <path d="m36 576.5v-576h1v576h-1z"/>
 <path d="m72 576.5v-576h1v576h-1z"/>
 <path d="m108 576.5v-576h0.998v576h-0.998z"/>
 <path d="m144 576.5v-576h1v576h-1z"/>
 <path d="m180 576.5v-576h1v576h-1z"/>
 <path d="m216 576.5v-576h0.998v576h-0.998z"/>
 <path d="m252 576.5v-576h1v576h-1z"/>
 <path d="m288 576.5v-576h1v576h-1z"/>
 <path d="m324 576.5v-576h0.999v576h-0.999z"/>
 <path d="m360 576.5v-576h1.001v576h-1.001z"/>
 <path d="m396 576.5v-576h1v576h-1z"/>
 <path d="m432 576.5v-576h0.999v576h-0.999z"/>
 <path d="m468 576.5v-576h0.999v576h-0.999z"/>
 <path d="m504 576.5v-576h1v576h-1z"/>
 <path d="m540 576.5v-576h0.999v576h-0.999z"/>
 <path d="m0.499 37v-1h576v1h-576zm576-0.5v-0.5 0.5zm0-0.5v0.5-0.5z"/>
 <path d="m0.499 73v-1h576v1h-576zm576-0.5v-0.5 0.5zm0-0.5v0.5-0.5z"/>
 <path d="m0.499 109v-0.998h576v0.998h-576zm576-0.498v-0.5 0.5zm0-0.5v0.5-0.5z"/>
 <path d="m0.499 145v-1h576v1h-576zm576-0.5v-0.5 0.5zm0-0.5v0.5-0.5z"/>
 <path d="m0.499 181v-1h576v1h-576zm576-0.5v-0.5 0.5zm0-0.5v0.5-0.5z"/>
 <path d="m0.499 217v-0.998h576v0.998h-576zm576-0.498v-0.5 0.5zm0-0.5v0.5-0.5z"/>
 <path d="m0.499 253v-1h576v1h-576zm576-0.5v-0.5 0.5zm0-0.5v0.5-0.5z"/>
 <path d="m0.499 289v-1h576v1h-576zm576-0.5v-0.5 0.5zm0-0.5v0.5-0.5z"/>
 <path d="m0.499 325v-0.999h576v0.998h-576v1e-3zm576-0.499v-0.5 0.5zm0-0.5v0.5-0.5z"/>
 <path d="m0.499 361v-1.001h576v1.001h-576zm576-0.5v-0.501 0.501zm0-0.501v0.501-0.501z"/>
 <path d="m0.499 397v-1h576v1h-576zm576-0.5v-0.5 0.5zm0-0.5v0.5-0.5z"/>
 <path d="m0.499 433v-0.999h576v0.998h-576v1e-3zm576-0.499v-0.5 0.5zm0-0.5v0.5-0.5z"/>
 <path d="m0.499 469v-0.999h576v0.998h-576v1e-3zm576-0.499v-0.5 0.5zm0-0.5v0.5-0.5z"/>
 <path d="m0.499 505v-1h576v1h-576zm576-0.5v-0.5 0.5zm0-0.5v0.5-0.5z"/>
 <path d="m0.499 541v-0.999h576v0.998h-576v1e-3zm576-0.499v-0.5 0.5zm0-0.5v0.5-0.5z"/>
 <path d="m72.5 72.5v-36h-36v72h72v-36h-36z"/>
 <path d="m36.5 468.5v72h36v-36h36v-36h-72z"/>
 <path d="m504.5 36.5v36h-36v36h72v-72h-36z"/>
 <path d="m468.5 468v36h36v36h36v-72h-72z"/>
 <path d="m252 252h72v72h-72z"/>
 <path d="m.5,216.5h72v36h-72z"/>
 <path d="m.5,324.5h72v36h-72z"/>
 <path d="m180.5 216.5v36h-72v72h72v36h36v-144h-36z"/>
 <path d="m108.5 361v35.5h-72v36h72v36.5h36v-108h-36z"/>
 <path d="m108.5 108v36.5h-72v36h72v35.5h36v-108h-36z"/>
 <path d="m504.5 324.5h72v36h-72z"/>
 <path d="m504.5 216.5h72v36h-72z"/>
 <path d="m468.5 252.5h-72v-36h-36v144h36v-36h72v-72z"/>
 <path d="m540.5 144.5h-72v-36.5h-36v108h36v-35.5h72v-36z"/>
 <path d="m540.5 396.5h-72v-36h-36v108h36v-36h72v-36z"/>
 <path d="m216.5.5v36h35v36h73v-36h36v-36h-144z"/>
 <path d="m180.5 72.5h36v36h-36z"/>
 <path d="m360.5 72.5h36v36h-36z"/>
 <path d="m324.5,108.5v36h-72.5v-35.5h-36v36h.625v35.5h35.875v36h72v-36h35.875v-36h.125v-36h-36z"/>
 <path d="m325.5 540.5v-36h-73v36h-36v36h144v-36h-35z"/>
 <path d="m360.5 468.5h36v36h-36z"/>
 <path d="m180.5 468.5h36v36h-36z"/>
 <path d="m360.375,432v-35.5h-35.875v-36h-72v36h-35.875v36h-.125v36h36v-36h72.5v35.5h36v-36h-.625z"/>
 <path d="m5.331,3.688h-.024l-1.355.731-.204-.802 1.703-.912h.9v7.795h-1.02v-6.812z"/>
 <path d="m76.04,10.5v-.647l.828-.804c1.991-1.895 2.891-2.902 2.902-4.078 0-.792-.384-1.523-1.547-1.523-.708,0-1.295.36-1.655.66l-.336-.744c.54-.456 1.308-.792 2.207-.792 1.679,0 2.387,1.151 2.387,2.267 0,1.439-1.043,2.603-2.687,4.186l-.624.576v.024h3.502v.875h-4.977z"/>
 <path d="m112.292,9.289c.3.192.996.492 1.727.492 1.355,0 1.775-.863 1.763-1.511-.012-1.091-.996-1.559-2.015-1.559h-.587v-.792h.587c.768,0 1.739-.396 1.739-1.319 0-.624-.396-1.175-1.367-1.175-.624,0-1.224.276-1.559.516l-.276-.768c.408-.3 1.199-.6 2.039-.6 1.535,0 2.231.912 2.231,1.859 0,.804-.48,1.487-1.439,1.835v.024c.959.192 1.739.911 1.739,2.002 0,1.248-.972,2.339-2.842,2.339-.875,0-1.643-.276-2.027-.528l.287-.815z"/>
 <path d="m151.302,10.5v-2.123h-3.622v-.695l3.479-4.978h1.139v4.846h1.091v.827h-1.091v2.123h-.996zm0-2.95v-2.602c0-.408.012-.816.036-1.224h-.036c-.24.456-.432.792-.647,1.151l-1.907,2.65v.025h2.554z"/>
 <path d="m188.694,3.592h-2.975l-.3,2.003c.18-.024.348-.048.636-.048 .6,0 1.199.132 1.679.419 .611.348 1.115,1.02 1.115,2.003 0,1.523-1.211,2.663-2.902,2.663-.852,0-1.571-.24-1.943-.479l.264-.804c.324.192.959.432 1.667.432 .996,0 1.847-.647 1.847-1.691-.012-1.007-.684-1.727-2.243-1.727-.444,0-.792.048-1.08.084l.504-3.742h3.73v.887h.001z"/>
 <path d="m368.49,3.448c-.216-.012-.492,0-.792.048-1.654.275-2.53,1.487-2.71,2.77h.036c.371-.492 1.02-.899 1.883-.899 1.379,0 2.351.996 2.351,2.519 0,1.427-.972,2.747-2.591,2.747-1.667,0-2.758-1.295-2.758-3.322 0-1.535.551-2.746 1.318-3.514 .648-.636 1.512-1.032 2.495-1.151 .312-.048.575-.06.768-.06v.862zm-1.811,6.369c.899,0 1.511-.756 1.511-1.871 0-1.115-.636-1.787-1.607-1.787-.636,0-1.223.396-1.511.959-.072.12-.12.276-.12.468 .024,1.284.611,2.231 1.715,2.231h.012z"/>
 <path d="m405.101,2.705v.695l-3.394,7.1h-1.092l3.382-6.896v-.024h-3.813v-.875h4.917z"/>
 <path d="m437.479,6.399c-.863-.408-1.235-1.08-1.235-1.751 0-1.235 1.044-2.075 2.411-2.075 1.511,0 2.267.948 2.267,1.919 0,.66-.323,1.367-1.283,1.823v.036c.972.384 1.571,1.067 1.571,2.015 0,1.355-1.163,2.267-2.65,2.267-1.632,0-2.615-.971-2.615-2.111 0-.983.588-1.679 1.548-2.087l-.014-.036zm2.663,2.075c0-.948-.66-1.403-1.715-1.703-.912.264-1.403.864-1.403,1.607-.036.792.563,1.487 1.559,1.487 .947,0 1.559-.6 1.559-1.391zm-2.902-3.898c0,.78.588,1.199 1.487,1.439 .671-.228 1.188-.708 1.188-1.416 0-.624-.372-1.271-1.319-1.271-.877.001-1.356.576-1.356,1.248z"/>
 <path d="m472.152,9.757c.228.024.492,0 .852-.036 .611-.083 1.188-.335 1.631-.755 .516-.468.888-1.151 1.031-2.075h-.035c-.433.527-1.056.839-1.835.839-1.403,0-2.303-1.055-2.303-2.387 0-1.475 1.067-2.771 2.662-2.771s2.578,1.295 2.578,3.286c0,1.715-.575,2.915-1.343,3.658-.6.587-1.428.947-2.267,1.043-.384.06-.72.072-.972.06v-.862h.001zm1.907-6.381c-.888,0-1.523.792-1.523,1.895 0,.971.588,1.655 1.499,1.655 .708,0 1.26-.348 1.535-.815 .061-.096.096-.216.096-.384 0-1.331-.491-2.351-1.595-2.351h-.012z"/>
 <path d="m544.331,3.688h-.023l-1.355.732-.204-.804 1.703-.912h.899v7.796h-1.02v-6.812z"/>
 <path d="m553.377,6.519c0,2.651-.983,4.114-2.71,4.114-1.523,0-2.555-1.427-2.579-4.006 0-2.614 1.128-4.054 2.711-4.054 1.643,0 2.578,1.463 2.578,3.946zm-4.233.12c0,2.027.624,3.178 1.583,3.178 1.079,0 1.595-1.259 1.595-3.25 0-1.919-.491-3.179-1.583-3.179-.923,0-1.595,1.128-1.595,3.251z"/>
 <path d="m78.331,39.688h-.024l-1.355.732-.204-.804 1.703-.912h.9v7.796h-1.02v-6.812z"/>
 <path d="m84.487,39.688h-.024l-1.355.732-.204-.804 1.703-.912h.9v7.796h-1.02v-6.812z"/>
 <path d="m221.331,39.688h-.024l-1.355.732-.204-.804 1.703-.912h.9v7.796h-1.02v-6.812z"/>
 <path d="m225.196,46.5v-.647l.828-.804c1.991-1.895 2.891-2.902 2.902-4.078 0-.792-.384-1.523-1.547-1.523-.708,0-1.295.36-1.655.66l-.336-.744c.54-.456 1.308-.792 2.207-.792 1.679,0 2.387,1.151 2.387,2.267 0,1.439-1.043,2.603-2.687,4.186l-.624.576v.024h3.502v.875h-4.977z"/>
 <path d="m328.331,39.688h-.023l-1.355.732-.204-.804 1.703-.912h.899v7.796h-1.02v-6.812z"/>
 <path d="m332.449,45.289c.3.192.995.492 1.727.492 1.355,0 1.775-.863 1.763-1.511-.012-1.091-.995-1.559-2.015-1.559h-.588v-.792h.588c.768,0 1.739-.396 1.739-1.319 0-.624-.396-1.175-1.367-1.175-.624,0-1.224.276-1.56.516l-.275-.768c.407-.3 1.199-.6 2.039-.6 1.535,0 2.23.912 2.23,1.859 0,.804-.479,1.487-1.439,1.835v.024c.96.192 1.739.911 1.739,2.002 0,1.248-.972,2.339-2.843,2.339-.875,0-1.643-.276-2.026-.528l.288-.815z"/>
 <path d="m114.331,75.688h-.024l-1.355.732-.204-.804 1.703-.912h.9v7.796h-1.02v-6.812z"/>
 <path d="m121.458,82.5v-2.123h-3.622v-.695l3.479-4.978h1.139v4.846h1.091v.827h-1.091v2.123h-.996zm0-2.95v-2.603c0-.408.012-.816.036-1.224h-.036c-.24.456-.432.792-.647,1.151l-1.907,2.65v.024h2.554v.002z"/>
 <path d="m221.331,75.688h-.024l-1.355.732-.204-.804 1.703-.912h.9v7.796h-1.02v-6.812z"/>
 <path d="m229.85,75.592h-2.975l-.3,2.003c.18-.024.348-.048.636-.048 .6,0 1.199.132 1.679.419 .611.348 1.115,1.02 1.115,2.003 0,1.523-1.211,2.663-2.902,2.663-.852,0-1.571-.24-1.943-.479l.264-.804c.324.192.959.432 1.667.432 .996,0 1.847-.647 1.847-1.691-.012-1.007-.684-1.727-2.243-1.727-.444,0-.792.048-1.08.084l.504-3.742h3.73v.887h.001z"/>
 <path d="m402.331,75.688h-.023l-1.355.732-.204-.804 1.703-.912h.899v7.796h-1.02v-6.812z"/>
 <path d="m410.645,75.448c-.215-.012-.491,0-.791.048-1.655.275-2.531,1.487-2.711,2.77h.036c.372-.492 1.02-.899 1.884-.899 1.379,0 2.35.996 2.35,2.519 0,1.427-.971,2.747-2.59,2.747-1.668,0-2.759-1.295-2.759-3.322 0-1.535.552-2.746 1.319-3.514 .647-.636 1.512-1.032 2.494-1.151 .313-.048.576-.06.768-.06v.862zm-1.811,6.369c.899,0 1.512-.756 1.512-1.871 0-1.115-.637-1.787-1.607-1.787-.636,0-1.224.396-1.512.959-.072.12-.119.276-.119.468 .023,1.284.611,2.231 1.715,2.231h.011z"/>
 <path d="m5.331,111.688h-.024l-1.355.732-.204-.804 1.703-.912h.899v7.796h-1.02v-6.812h.001z"/>
 <path d="m14.257,110.705v.696l-3.394,7.1h-1.091l3.382-6.896v-.024h-3.814v-.875h4.917v-.001z"/>
 <path d="m186.331,111.688h-.024l-1.355.732-.204-.804 1.703-.912h.9v7.796h-1.02v-6.812z"/>
 <path d="m190.808,117.757c.228.024.492,0 .852-.036 .612-.083 1.188-.335 1.631-.755 .516-.468.888-1.151 1.032-2.075h-.036c-.432.527-1.055.839-1.835.839-1.403,0-2.303-1.055-2.303-2.387 0-1.475 1.067-2.771 2.663-2.771s2.579,1.295 2.579,3.286c0,1.715-.576,2.915-1.343,3.658-.6.587-1.427.947-2.267,1.043-.384.06-.72.072-.972.06v-.862h-.001zm1.906-6.381c-.887,0-1.523.792-1.523,1.895 0,.971.588,1.655 1.499,1.655 .708,0 1.259-.348 1.535-.815 .06-.096.096-.216.096-.384 0-1.331-.492-2.351-1.595-2.351h-.012z"/>
 <path d="m255.04,118.5v-.647l.828-.804c1.991-1.895 2.891-2.902 2.902-4.078 0-.792-.384-1.523-1.547-1.523-.708,0-1.295.36-1.655.66l-.336-.744c.54-.456 1.308-.792 2.207-.792 1.679,0 2.387,1.151 2.387,2.267 0,1.439-1.043,2.603-2.687,4.186l-.624.576v.024h3.502v.875h-4.977z"/>
 <path d="m266.377,114.519c0,2.651-.983,4.114-2.71,4.114-1.523,0-2.555-1.427-2.579-4.006 0-2.614 1.127-4.054 2.71-4.054 1.643,0 2.579,1.463 2.579,3.946zm-4.233.12c0,2.027.624,3.178 1.583,3.178 1.08,0 1.595-1.259 1.595-3.25 0-1.919-.492-3.179-1.583-3.179-.924,0-1.595,1.128-1.595,3.251z"/>
 <path d="m364.04,118.5v-.647l.828-.804c1.991-1.895 2.891-2.902 2.902-4.078 0-.792-.384-1.523-1.547-1.523-.708,0-1.295.36-1.655.66l-.336-.744c.54-.456 1.308-.792 2.207-.792 1.679,0 2.387,1.151 2.387,2.267 0,1.439-1.044,2.603-2.687,4.186l-.624.576v.024h3.503v.875h-4.978z"/>
 <path d="m372.487,111.688h-.023l-1.355.732-.204-.804 1.702-.912h.9v7.796h-1.02v-6.812z"/>
 <path d="m471.541,118.5v-.647l.827-.804c1.991-1.895 2.891-2.902 2.902-4.078 0-.792-.384-1.523-1.547-1.523-.708,0-1.296.36-1.655.66l-.336-.744c.54-.456 1.308-.792 2.207-.792 1.679,0 2.387,1.151 2.387,2.267 0,1.439-1.044,2.603-2.687,4.186l-.624.576v.024h3.502v.875h-4.976z"/>
 <path d="m477.697,118.5v-.647l.827-.804c1.991-1.895 2.891-2.902 2.902-4.078 0-.792-.384-1.523-1.547-1.523-.708,0-1.296.36-1.655.66l-.336-.744c.54-.456 1.308-.792 2.207-.792 1.679,0 2.387,1.151 2.387,2.267 0,1.439-1.044,2.603-2.687,4.186l-.624.576v.024h3.502v.875h-4.976z"/>
 <path d="m148.041,157.5v-.647l.827-.804c1.991-1.895 2.891-2.902 2.902-4.078 0-.792-.384-1.523-1.547-1.523-.708,0-1.296.36-1.655.66l-.336-.744c.54-.456 1.308-.792 2.207-.792 1.679,0 2.387,1.151 2.387,2.267 0,1.439-1.044,2.603-2.687,4.186l-.624.576v.024h3.502v.875h-4.976z"/>
 <path d="m154.449,156.289c.3.192.995.492 1.727.492 1.355,0 1.775-.863 1.763-1.511-.012-1.091-.995-1.559-2.015-1.559h-.588v-.792h.588c.768,0 1.739-.396 1.739-1.319 0-.624-.396-1.175-1.367-1.175-.624,0-1.224.276-1.56.516l-.275-.768c.407-.3 1.199-.6 2.039-.6 1.535,0 2.23.912 2.23,1.859 0,.804-.479,1.487-1.439,1.835v.024c.96.192 1.739.911 1.739,2.002 0,1.248-.972,2.339-2.843,2.339-.875,0-1.643-.276-2.026-.528l.288-.815z"/>
 <path d="m367.04,158.5v-.647l.828-.804c1.991-1.895 2.891-2.902 2.902-4.078 0-.792-.384-1.523-1.547-1.523-.708,0-1.295.36-1.655.66l-.336-.744c.54-.456 1.308-.792 2.207-.792 1.679,0 2.387,1.151 2.387,2.267 0,1.439-1.044,2.603-2.687,4.186l-.624.576v.024h3.503v.875h-4.978z"/>
 <path d="m376.458,158.5v-2.123h-3.621v-.695l3.479-4.978h1.139v4.846h1.092v.827h-1.092v2.123h-.997zm0-2.95v-2.603c0-.408.013-.816.037-1.224h-.037c-.239.456-.432.792-.646,1.151l-1.907,2.65v.024h2.553v.002z"/>
 <path d="m3.04,190.5v-.647l.828-.804c1.991-1.895 2.891-2.902 2.902-4.078 0-.792-.384-1.523-1.547-1.523-.708,0-1.295.36-1.655.66l-.336-.744c.54-.456 1.308-.792 2.207-.792 1.679,0 2.387,1.151 2.387,2.267 0,1.439-1.043,2.603-2.687,4.186l-.624.576v.024h3.502v.875h-4.977z"/>
 <path d="m13.85,183.592h-2.975l-.3,2.003c.18-.024.348-.048.636-.048 .6,0 1.199.132 1.679.419 .611.348 1.115,1.02 1.115,2.003 0,1.523-1.211,2.663-2.902,2.663-.852,0-1.571-.24-1.943-.479l.264-.804c.324.192.959.432 1.667.432 .996,0 1.847-.647 1.847-1.691-.012-1.007-.684-1.727-2.243-1.727-.444,0-.792.048-1.08.084l.504-3.742h3.73v.887h.001z"/>
 <path d="m76.04,190.5v-.647l.828-.804c1.991-1.895 2.891-2.902 2.902-4.078 0-.792-.384-1.523-1.547-1.523-.708,0-1.295.36-1.655.66l-.336-.744c.54-.456 1.308-.792 2.207-.792 1.679,0 2.387,1.151 2.387,2.267 0,1.439-1.043,2.603-2.687,4.186l-.624.576v.024h3.502v.875h-4.977z"/>
 <path d="m86.646,183.448c-.216-.012-.492,0-.792.048-1.655.275-2.531,1.487-2.71,2.77h.036c.372-.492 1.02-.899 1.883-.899 1.379,0 2.351.996 2.351,2.519 0,1.427-.972,2.747-2.59,2.747-1.667,0-2.759-1.295-2.759-3.322 0-1.535.552-2.746 1.319-3.514 .647-.636 1.511-1.032 2.495-1.151 .312-.048.576-.06.768-.06v.862h-.001zm-1.812,6.369c.899,0 1.511-.756 1.511-1.871s-.636-1.787-1.607-1.787c-.636,0-1.224.396-1.511.959-.072.12-.12.276-.12.468 .024,1.284.612,2.231 1.715,2.231h.012z"/>
 <path d="m148.041,190.5v-.647l.827-.804c1.991-1.895 2.891-2.902 2.902-4.078 0-.792-.384-1.523-1.547-1.523-.708,0-1.296.36-1.655.66l-.336-.744c.54-.456 1.308-.792 2.207-.792 1.679,0 2.387,1.151 2.387,2.267 0,1.439-1.044,2.603-2.687,4.186l-.624.576v.024h3.502v.875h-4.976z"/>
 <path d="m159.26 182.7v0.696l-3.394 7.1h-1.092l3.382-6.896v-0.024h-3.813v-0.875h4.917v-1e-3z"/>
 <path d="m219.041,190.5v-.647l.827-.804c1.991-1.895 2.891-2.902 2.902-4.078 0-.792-.384-1.523-1.547-1.523-.708,0-1.296.36-1.655.66l-.336-.744c.54-.456 1.308-.792 2.207-.792 1.679,0 2.387,1.151 2.387,2.267 0,1.439-1.044,2.603-2.687,4.186l-.624.576v.024h3.502v.875h-4.976z"/>
 <path d="m226.635,186.399c-.863-.408-1.235-1.08-1.235-1.751 0-1.235 1.044-2.075 2.411-2.075 1.511,0 2.267.948 2.267,1.919 0,.66-.323,1.367-1.283,1.823v.036c.972.384 1.571,1.067 1.571,2.015 0,1.355-1.163,2.267-2.65,2.267-1.632,0-2.615-.971-2.615-2.111 0-.983.588-1.679 1.548-2.087l-.014-.036zm2.663,2.075c0-.948-.66-1.403-1.715-1.703-.912.264-1.403.864-1.403,1.607-.036.792.563,1.487 1.559,1.487 .947,0 1.559-.6 1.559-1.391zm-2.902-3.898c0,.78.588,1.199 1.487,1.439 .671-.228 1.188-.708 1.188-1.416 0-.624-.372-1.271-1.319-1.271-.877.001-1.356.576-1.356,1.248z"/>
 <path d="m326.04,190.5v-.647l.828-.804c1.991-1.895 2.891-2.902 2.902-4.078 0-.792-.384-1.523-1.547-1.523-.708,0-1.295.36-1.655.66l-.336-.744c.54-.456 1.308-.792 2.207-.792 1.679,0 2.387,1.151 2.387,2.267 0,1.439-1.044,2.603-2.687,4.186l-.624.576v.024h3.503v.875h-4.978z"/>
 <path d="m332.807,189.757c.229.024.492,0 .852-.036 .612-.083 1.188-.335 1.631-.755 .517-.468.889-1.151 1.032-2.075h-.036c-.432.527-1.055.839-1.835.839-1.403,0-2.303-1.055-2.303-2.387 0-1.475 1.067-2.771 2.663-2.771s2.578,1.295 2.578,3.286c0,1.715-.576,2.915-1.344,3.658-.6.587-1.427.947-2.266,1.043-.385.06-.721.072-.973.06v-.862h.001zm1.907-6.381c-.888,0-1.522.792-1.522,1.895 0,.971.588,1.655 1.498,1.655 .708,0 1.26-.348 1.535-.815 .061-.096.097-.216.097-.384 0-1.331-.491-2.351-1.595-2.351h-.013z"/>
 <path d="m471.792,189.289c.301.192.996.492 1.728.492 1.355,0 1.774-.863 1.763-1.511-.012-1.091-.995-1.559-2.015-1.559h-.587v-.792h.587c.768,0 1.739-.396 1.739-1.319 0-.624-.396-1.175-1.367-1.175-.624,0-1.224.276-1.559.516l-.276-.768c.407-.3 1.199-.6 2.038-.6 1.535,0 2.231.912 2.231,1.859 0,.804-.479,1.487-1.439,1.835v.024c.96.192 1.739.911 1.739,2.002 0,1.248-.972,2.339-2.842,2.339-.876,0-1.644-.276-2.027-.528l.287-.815z"/>
 <path d="m482.877,186.519c0,2.651-.984,4.114-2.711,4.114-1.523,0-2.555-1.427-2.578-4.006 0-2.614 1.127-4.054 2.71-4.054 1.644,0 2.579,1.463 2.579,3.946zm-4.234.12c0,2.027.624,3.178 1.584,3.178 1.079,0 1.595-1.259 1.595-3.25 0-1.919-.491-3.179-1.583-3.179-.924,0-1.596,1.128-1.596,3.251z"/>
 <path d="m76.292,225.289c.3.192.995.492 1.727.492 1.355,0 1.775-.863 1.763-1.511-.012-1.091-.995-1.559-2.015-1.559h-.588v-.792h.588c.768,0 1.739-.396 1.739-1.319 0-.624-.396-1.175-1.367-1.175-.624,0-1.224.276-1.56.516l-.275-.768c.407-.3 1.199-.6 2.039-.6 1.535,0 2.23.912 2.23,1.859 0,.804-.479,1.487-1.439,1.835v.024c.96.192 1.739.911 1.739,2.002 0,1.248-.972,2.339-2.843,2.339-.875,0-1.643-.276-2.026-.528l.288-.815z"/>
 <path d="m84.487,219.688h-.023l-1.355.732-.204-.804 1.703-.912h.899v7.796h-1.02v-6.812z"/>
 <path d="m219.292,225.289c.3.192.996.492 1.727.492 1.355,0 1.775-.863 1.763-1.511-.012-1.091-.996-1.559-2.015-1.559h-.587v-.792h.587c.768,0 1.739-.396 1.739-1.319 0-.624-.396-1.175-1.367-1.175-.624,0-1.224.276-1.559.516l-.276-.768c.408-.3 1.199-.6 2.039-.6 1.535,0 2.231.912 2.231,1.859 0,.804-.48,1.487-1.439,1.835v.024c.959.192 1.739.911 1.739,2.002 0,1.248-.972,2.339-2.842,2.339-.875,0-1.643-.276-2.027-.528l.287-.815z"/>
 <path d="m225.196,226.5v-.647l.828-.804c1.991-1.895 2.891-2.902 2.902-4.078 0-.792-.384-1.523-1.547-1.523-.708,0-1.295.36-1.655.66l-.336-.744c.54-.456 1.308-.792 2.207-.792 1.679,0 2.387,1.151 2.387,2.267 0,1.439-1.043,2.603-2.687,4.186l-.624.576v.024h3.502v.875h-4.977z"/>
 <path d="m400.292,225.289c.301.192.996.492 1.728.492 1.355,0 1.774-.863 1.763-1.511-.012-1.091-.995-1.559-2.015-1.559h-.587v-.792h.587c.768,0 1.739-.396 1.739-1.319 0-.624-.396-1.175-1.367-1.175-.624,0-1.224.276-1.559.516l-.276-.768c.407-.3 1.199-.6 2.038-.6 1.535,0 2.231.912 2.231,1.859 0,.804-.479,1.487-1.439,1.835v.024c.96.192 1.739.911 1.739,2.002 0,1.248-.972,2.339-2.842,2.339-.876,0-1.644-.276-2.027-.528l.287-.815z"/>
 <path d="m406.448,225.289c.3.192.996.492 1.727.492 1.355,0 1.775-.863 1.764-1.511-.012-1.091-.996-1.559-2.016-1.559h-.587v-.792h.587c.768,0 1.74-.396 1.74-1.319 0-.624-.396-1.175-1.367-1.175-.624,0-1.225.276-1.56.516l-.276-.768c.408-.3 1.199-.6 2.039-.6 1.535,0 2.23.912 2.23,1.859 0,.804-.479,1.487-1.439,1.835v.024c.96.192 1.74.911 1.74,2.002 0,1.248-.973,2.339-2.843,2.339-.876,0-1.644-.276-2.026-.528l.287-.815z"/>
 <path d="m3.292,261.039c.3.192.996.492 1.727.492 1.355,0 1.775-.863 1.763-1.511-.012-1.091-.996-1.559-2.015-1.559h-.587v-.792h.587c.768,0 1.739-.396 1.739-1.319 0-.624-.396-1.175-1.367-1.175-.624,0-1.224.276-1.559.516l-.276-.768c.408-.3 1.199-.6 2.039-.6 1.535,0 2.231.912 2.231,1.859 0,.804-.48,1.487-1.439,1.835v.024c.959.192 1.739.911 1.739,2.002 0,1.248-.972,2.339-2.842,2.339-.875,0-1.643-.276-2.027-.528l.287-.815z"/>
 <path d="m12.458,262.25v-2.123h-3.622v-.695l3.479-4.978h1.139v4.846h1.091v.827h-1.091v2.123h-.996zm0-2.95v-2.603c0-.408.012-.816.036-1.224h-.036c-.24.456-.432.792-.647,1.151l-1.907,2.65v.024h2.554v.002z"/>
 <path d="m39.292,261.039c.3.192.995.492 1.727.492 1.355,0 1.775-.863 1.763-1.511-.012-1.091-.995-1.559-2.015-1.559h-.588v-.792h.588c.768,0 1.739-.396 1.739-1.319 0-.624-.396-1.175-1.367-1.175-.624,0-1.224.276-1.56.516l-.275-.768c.407-.3 1.199-.6 2.039-.6 1.535,0 2.23.912 2.23,1.859 0,.804-.479,1.487-1.439,1.835v.024c.96.192 1.739.911 1.739,2.002 0,1.248-.972,2.339-2.843,2.339-.875,0-1.643-.276-2.026-.528l.288-.815z"/>
 <path d="m49.85,255.342h-2.975l-.3,2.003c.18-.024.348-.048.636-.048 .6,0 1.199.132 1.679.419 .612.348 1.115,1.02 1.115,2.003 0,1.523-1.211,2.663-2.902,2.663-.852,0-1.57-.24-1.942-.479l.264-.804c.324.192.959.432 1.667.432 .995,0 1.847-.647 1.847-1.691-.012-1.007-.684-1.727-2.242-1.727-.444,0-.792.048-1.08.084l.504-3.742h3.73v.887h-.001z"/>
 <path d="m471.792,261.039c.3.192.995.492 1.727.492 1.355,0 1.775-.863 1.763-1.511-.012-1.091-.995-1.559-2.015-1.559h-.588v-.792h.588c.768,0 1.739-.396 1.739-1.319 0-.624-.396-1.175-1.367-1.175-.624,0-1.224.276-1.56.516l-.275-.768c.407-.3 1.199-.6 2.039-.6 1.535,0 2.23.912 2.23,1.859 0,.804-.479,1.487-1.439,1.835v.024c.96.192 1.739.911 1.739,2.002 0,1.248-.972,2.339-2.843,2.339-.875,0-1.643-.276-2.026-.528l.288-.815z"/>
 <path d="m482.146,255.198c-.216-.012-.492,0-.792.048-1.654.275-2.53,1.487-2.71,2.77h.036c.371-.492 1.02-.899 1.883-.899 1.379,0 2.351.996 2.351,2.519 0,1.427-.972,2.747-2.591,2.747-1.667,0-2.758-1.295-2.758-3.322 0-1.535.551-2.746 1.318-3.514 .648-.636 1.512-1.032 2.495-1.151 .312-.048.575-.06.768-.06v.862zm-1.811,6.369c.899,0 1.511-.756 1.511-1.871s-.636-1.787-1.607-1.787c-.636,0-1.223.396-1.511.959-.072.12-.12.276-.12.468 .024,1.284.611,2.231 1.715,2.231h.012z"/>
 <path d="m507.292,261.04c.301.191.996.491 1.728.491 1.355,0 1.774-.863 1.763-1.511-.012-1.092-.995-1.56-2.015-1.56h-.587v-.791h.587c.768,0 1.739-.396 1.739-1.319 0-.624-.396-1.176-1.367-1.176-.624,0-1.224.276-1.559.516l-.276-.768c.407-.3 1.199-.6 2.038-.6 1.535,0 2.231.911 2.231,1.859 0,.804-.479,1.487-1.439,1.835v.023c.96.192 1.739.912 1.739,2.003 0,1.248-.972,2.339-2.842,2.339-.876,0-1.644-.275-2.027-.527l.287-.814z"/>
 <path d="m518.257,254.455v.696l-3.395,7.1h-1.091l3.382-6.896v-.023h-3.813v-.876h4.917v-.001z"/>
 <path d="m542.292,261.04c.3.191.995.491 1.727.491 1.355,0 1.775-.863 1.763-1.511-.012-1.092-.995-1.56-2.015-1.56h-.588v-.791h.588c.768,0 1.739-.396 1.739-1.319 0-.624-.396-1.176-1.367-1.176-.624,0-1.224.276-1.56.516l-.275-.768c.407-.3 1.199-.6 2.039-.6 1.535,0 2.23.911 2.23,1.859 0,.804-.479,1.487-1.439,1.835v.023c.96.192 1.739.912 1.739,2.003 0,1.248-.972,2.339-2.843,2.339-.875,0-1.643-.275-2.026-.527l.288-.814z"/>
 <path d="m549.635,258.149c-.863-.408-1.235-1.08-1.235-1.751 0-1.235 1.044-2.075 2.411-2.075 1.511,0 2.267.947 2.267,1.919 0,.66-.323,1.367-1.283,1.823v.036c.972.384 1.571,1.067 1.571,2.015 0,1.355-1.163,2.267-2.65,2.267-1.632,0-2.615-.972-2.615-2.11 0-.983.588-1.68 1.548-2.087l-.014-.037zm2.663,2.074c0-.947-.66-1.402-1.715-1.702-.912.264-1.403.863-1.403,1.606-.036.792.563,1.487 1.559,1.487 .947.001 1.559-.599 1.559-1.391zm-2.902-3.897c0,.779.588,1.199 1.487,1.439 .671-.229 1.188-.708 1.188-1.415 0-.624-.372-1.271-1.319-1.271-.877,0-1.356.575-1.356,1.247z"/>
 <path d="m3.292,297.29c.3.191.996.491 1.727.491 1.355,0 1.775-.863 1.763-1.511-.012-1.092-.996-1.56-2.015-1.56h-.587v-.791h.587c.768,0 1.739-.396 1.739-1.319 0-.624-.396-1.176-1.367-1.176-.624,0-1.224.276-1.559.516l-.276-.768c.408-.3 1.199-.6 2.039-.6 1.535,0 2.231.911 2.231,1.859 0,.804-.48,1.487-1.439,1.835v.023c.959.192 1.739.912 1.739,2.003 0,1.248-.972,2.339-2.842,2.339-.875,0-1.643-.275-2.027-.527l.287-.814z"/>
 <path d="m9.808,297.757c.228.023.492,0 .852-.036 .612-.084 1.188-.336 1.631-.756 .516-.468.888-1.151 1.032-2.075h-.036c-.432.528-1.055.84-1.835.84-1.403,0-2.303-1.056-2.303-2.387 0-1.476 1.067-2.771 2.663-2.771s2.579,1.295 2.579,3.286c0,1.715-.576,2.915-1.343,3.658-.6.588-1.427.947-2.267,1.043-.384.061-.72.072-.972.061v-.863h-.001zm1.906-6.381c-.887,0-1.523.792-1.523,1.895 0,.972.588,1.655 1.499,1.655 .708,0 1.259-.348 1.535-.815 .06-.096.096-.216.096-.384 0-1.331-.492-2.351-1.595-2.351h-.012z"/>
 <path d="m474.802,298.5v-2.123h-3.622v-.695l3.479-4.978h1.139v4.846h1.092v.827h-1.092v2.123h-.996zm0-2.95v-2.603c0-.408.013-.815.036-1.224h-.036c-.239.456-.432.792-.647,1.151l-1.907,2.65v.024h2.554v.002z"/>
 <path d="m482.877,294.519c0,2.65-.984,4.113-2.711,4.113-1.523,0-2.555-1.427-2.578-4.006 0-2.614 1.127-4.054 2.71-4.054 1.644.001 2.579,1.464 2.579,3.947zm-4.234.119c0,2.027.624,3.179 1.584,3.179 1.079,0 1.595-1.26 1.595-3.25 0-1.919-.491-3.179-1.583-3.179-.924,0-1.596,1.128-1.596,3.25z"/>
 <path d="m79.302,334.5v-2.123h-3.622v-.695l3.479-4.978h1.139v4.846h1.091v.827h-1.091v2.123h-.996zm0-2.95v-2.603c0-.408.012-.815.036-1.224h-.036c-.24.456-.432.792-.647,1.151l-1.907,2.65v.024h2.554v.002z"/>
 <path d="m84.487,327.688h-.024l-1.355.731-.204-.803 1.703-.912h.9v7.796h-1.02v-6.812z"/>
 <path d="m151.302,334.5v-2.123h-3.622v-.695l3.479-4.978h1.139v4.846h1.092v.827h-1.092v2.123h-.996zm0-2.95v-2.603c0-.408.012-.815.036-1.224h-.036c-.239.456-.432.792-.647,1.151l-1.907,2.65v.024h2.554v.002z"/>
 <path d="m154.197,334.5v-.647l.827-.804c1.991-1.895 2.891-2.902 2.902-4.078 0-.791-.384-1.522-1.547-1.522-.708,0-1.296.359-1.655.659l-.336-.743c.54-.456 1.308-.792 2.207-.792 1.679,0 2.387,1.151 2.387,2.267 0,1.439-1.044,2.603-2.687,4.186l-.624.576v.023h3.502v.876h-4.976v-.001z"/>
 <path d="m222.302,334.5v-2.123h-3.622v-.695l3.479-4.978h1.139v4.846h1.091v.827h-1.091v2.123h-.996zm0-2.95v-2.603c0-.408.012-.815.036-1.224h-.036c-.24.456-.432.792-.647,1.151l-1.907,2.65v.024h2.554v.002z"/>
 <path d="m225.448,333.29c.3.191.996.491 1.727.491 1.355,0 1.775-.863 1.763-1.511-.012-1.092-.996-1.56-2.015-1.56h-.587v-.791h.587c.768,0 1.739-.396 1.739-1.319 0-.624-.396-1.176-1.367-1.176-.624,0-1.224.276-1.559.516l-.276-.768c.408-.3 1.199-.6 2.039-.6 1.535,0 2.231.911 2.231,1.859 0,.804-.48,1.487-1.439,1.835v.023c.959.192 1.739.912 1.739,2.003 0,1.248-.972,2.339-2.842,2.339-.875,0-1.643-.275-2.027-.527l.287-.814z"/>
 <path d="m403.302,334.5v-2.123h-3.622v-.695l3.479-4.978h1.139v4.846h1.092v.827h-1.092v2.123h-.996zm0-2.95v-2.603c0-.408.013-.815.036-1.224h-.036c-.239.456-.432.792-.647,1.151l-1.907,2.65v.024h2.554v.002z"/>
 <path d="m409.458,334.5v-2.123h-3.621v-.695l3.479-4.978h1.139v4.846h1.092v.827h-1.092v2.123h-.997zm0-2.95v-2.603c0-.408.013-.815.037-1.224h-.037c-.239.456-.432.792-.646,1.151l-1.907,2.65v.024h2.553v.002z"/>
 <path d="m6.302,370.5v-2.123h-3.622v-.695l3.479-4.978h1.139v4.846h1.092v.827h-1.093v2.123h-.995zm0-2.95v-2.603c0-.408.012-.815.036-1.224h-.036c-.239.456-.432.792-.647,1.151l-1.907,2.65v.024h2.554v.002z"/>
 <path d="m13.85,363.592h-2.975l-.3,2.003c.18-.024.348-.048.636-.048 .6,0 1.199.132 1.679.42 .612.348 1.115,1.02 1.115,2.003 0,1.522-1.211,2.662-2.902,2.662-.852,0-1.57-.24-1.942-.479l.264-.804c.324.192.959.432 1.667.432 .995,0 1.847-.647 1.847-1.691-.012-1.007-.684-1.727-2.242-1.727-.444,0-.792.048-1.08.084l.504-3.742h3.73v.887h-.001z"/>
 <path d="m187.302,370.5v-2.123h-3.622v-.695l3.479-4.978h1.139v4.846h1.092v.827h-1.092v2.123h-.996zm0-2.95v-2.603c0-.408.012-.815.036-1.224h-.036c-.239.456-.432.792-.647,1.151l-1.907,2.65v.024h2.554v.002z"/>
 <path d="m195.26 362.7v0.696l-3.394 7.1h-1.092l3.382-6.896v-0.023h-3.813v-0.876h4.917v-1e-3z"/>
 <path d="m329.302,370.5v-2.123h-3.622v-.695l3.479-4.978h1.139v4.846h1.092v.827h-1.092v2.123h-.996zm0-2.95v-2.603c0-.408.012-.815.036-1.224h-.036c-.239.456-.432.792-.647,1.151l-1.907,2.65v.024h2.554v.002z"/>
 <path d="m333.635,366.399c-.863-.408-1.235-1.08-1.235-1.751 0-1.235 1.044-2.075 2.411-2.075 1.511,0 2.267.947 2.267,1.919 0,.66-.323,1.367-1.283,1.823v.036c.972.384 1.571,1.067 1.571,2.015 0,1.355-1.163,2.267-2.65,2.267-1.632,0-2.615-.972-2.615-2.11 0-.983.588-1.68 1.548-2.087l-.014-.037zm2.663,2.074c0-.947-.66-1.402-1.715-1.702-.912.264-1.403.863-1.403,1.606-.036.792.563,1.487 1.559,1.487 .947.001 1.559-.599 1.559-1.391zm-2.902-3.897c0,.779.588,1.199 1.487,1.439 .671-.229 1.188-.708 1.188-1.415 0-.624-.372-1.271-1.319-1.271-.877,0-1.356.575-1.356,1.247z"/>
 <path d="m367.302,370.5v-2.123h-3.622v-.695l3.479-4.978h1.139v4.846h1.092v.827h-1.092v2.123h-.996zm0-2.95v-2.603c0-.408.012-.815.036-1.224h-.036c-.239.456-.432.792-.647,1.151l-1.907,2.65v.024h2.554v.002z"/>
 <path d="m370.808,369.757c.228.023.492,0 .852-.036 .611-.084 1.188-.336 1.631-.756 .516-.468.888-1.151 1.031-2.075h-.035c-.433.528-1.056.84-1.835.84-1.403,0-2.303-1.056-2.303-2.387 0-1.476 1.067-2.771 2.662-2.771s2.578,1.295 2.578,3.286c0,1.715-.575,2.915-1.343,3.658-.6.588-1.428.947-2.267,1.043-.384.061-.72.072-.972.061v-.863h.001zm1.907-6.381c-.888,0-1.523.792-1.523,1.895 0,.972.588,1.655 1.499,1.655 .708,0 1.26-.348 1.535-.815 .061-.096.096-.216.096-.384 0-1.331-.491-2.351-1.595-2.351h-.012z"/>
 <path d="m476.194,363.592h-2.975l-.3,2.003c.18-.024.348-.048.636-.048 .6,0 1.199.132 1.679.42 .612.348 1.115,1.02 1.115,2.003 0,1.522-1.211,2.662-2.902,2.662-.852,0-1.57-.24-1.942-.479l.264-.804c.324.192.959.432 1.667.432 .995,0 1.847-.647 1.847-1.691-.012-1.007-.684-1.727-2.242-1.727-.444,0-.792.048-1.08.084l.504-3.742h3.73v.887h-.001z"/>
 <path d="m482.877,366.519c0,2.65-.983,4.113-2.71,4.113-1.523,0-2.555-1.427-2.579-4.006 0-2.614 1.128-4.054 2.711-4.054 1.643.001 2.578,1.464 2.578,3.947zm-4.233.119c0,2.027.624,3.179 1.583,3.179 1.079,0 1.595-1.26 1.595-3.25 0-1.919-.491-3.179-1.583-3.179-.923,0-1.595,1.128-1.595,3.25z"/>
 <path d="m546.694,363.592h-2.975l-.3,2.003c.18-.024.348-.048.636-.048 .6,0 1.199.132 1.68.42 .611.348 1.115,1.02 1.115,2.003 0,1.522-1.212,2.662-2.902,2.662-.852,0-1.572-.24-1.943-.479l.264-.804c.324.192.959.432 1.667.432 .995,0 1.847-.647 1.847-1.691-.012-1.007-.684-1.727-2.242-1.727-.443,0-.792.048-1.08.084l.504-3.742h3.73v.887h-.001z"/>
 <path d="m550.487,363.688h-.023l-1.355.731-.204-.803 1.702-.912h.9v7.796h-1.02v-6.812z"/>
 <path d="m152.694,399.592h-2.975l-.3,2.003c.18-.024.348-.048.636-.048 .6,0 1.199.132 1.679.42 .612.348 1.115,1.02 1.115,2.003 0,1.522-1.211,2.662-2.902,2.662-.852,0-1.57-.24-1.942-.479l.264-.804c.324.192.959.432 1.667.432 .995,0 1.847-.647 1.847-1.691-.012-1.007-.684-1.727-2.242-1.727-.444,0-.792.048-1.08.084l.504-3.742h3.73v.887h-.001z"/>
 <path d="m154.197,406.5v-.647l.827-.804c1.991-1.895 2.891-2.902 2.902-4.078 0-.791-.384-1.522-1.547-1.522-.708,0-1.296.359-1.655.659l-.336-.743c.54-.456 1.308-.792 2.207-.792 1.679,0 2.387,1.151 2.387,2.267 0,1.439-1.044,2.603-2.687,4.186l-.624.576v.023h3.502v.876h-4.976v-.001z"/>
 <path d="m368.694,399.592h-2.975l-.3,2.003c.18-.024.348-.048.636-.048 .6,0 1.199.132 1.68.42 .611.348 1.115,1.02 1.115,2.003 0,1.522-1.212,2.662-2.902,2.662-.852,0-1.572-.24-1.943-.479l.264-.804c.324.192.959.432 1.667.432 .995,0 1.847-.647 1.847-1.691-.012-1.007-.684-1.727-2.242-1.727-.443,0-.792.048-1.08.084l.504-3.742h3.73v.887h-.001z"/>
 <path d="m370.448,405.29c.3.191.996.491 1.727.491 1.355,0 1.775-.863 1.764-1.511-.012-1.092-.996-1.56-2.016-1.56h-.587v-.791h.587c.768,0 1.74-.396 1.74-1.319 0-.624-.396-1.176-1.367-1.176-.624,0-1.225.276-1.56.516l-.276-.768c.408-.3 1.199-.6 2.039-.6 1.535,0 2.23.911 2.23,1.859 0,.804-.479,1.487-1.439,1.835v.023c.96.192 1.74.912 1.74,2.003 0,1.248-.973,2.339-2.843,2.339-.876,0-1.644-.275-2.026-.527l.287-.814z"/>
 <path d="m150.331,111.688h-.024l-1.355.732-.204-.804 1.703-.912h.9v7.796h-1.02v-6.812z"/>
 <path d="m155.635,114.399c-.864-.408-1.235-1.08-1.235-1.751 0-1.235 1.043-2.075 2.411-2.075 1.511,0 2.267.948 2.267,1.919 0,.66-.324,1.367-1.283,1.823v.036c.972.384 1.571,1.067 1.571,2.015 0,1.355-1.164,2.267-2.651,2.267-1.631,0-2.614-.971-2.614-2.111 0-.983.587-1.679 1.547-2.087l-.013-.036zm2.663,2.075c0-.948-.66-1.403-1.715-1.703-.911.264-1.403.864-1.403,1.607-.036.792.564,1.487 1.56,1.487 .946,0 1.558-.6 1.558-1.391zm-2.902-3.898c0,.78.587,1.199 1.487,1.439 .672-.228 1.188-.708 1.188-1.416 0-.624-.372-1.271-1.319-1.271-.877.001-1.356.576-1.356,1.248z"/>
 <path d="m151.302,370.5v-2.123h-3.622v-.695l3.479-4.978h1.139v4.846h1.091v.827h-1.091v2.123h-.996zm0-2.95v-2.603c0-.408.012-.815.036-1.224h-.036c-.24.456-.432.792-.647,1.151l-1.907,2.65v.024h2.554v.002z"/>
 <path d="m158.646,363.449c-.216-.013-.492,0-.792.048-1.655.275-2.531,1.487-2.71,2.771h.036c.372-.492 1.02-.899 1.883-.899 1.379,0 2.351.995 2.351,2.519 0,1.427-.972,2.746-2.59,2.746-1.667,0-2.759-1.295-2.759-3.322 0-1.535.552-2.746 1.319-3.514 .647-.636 1.511-1.031 2.495-1.151 .312-.048.576-.061.768-.061v.863h-.001zm-1.812,6.368c.899,0 1.511-.756 1.511-1.871s-.636-1.787-1.607-1.787c-.636,0-1.224.396-1.511.96-.072.12-.12.275-.12.468 .024,1.283.612,2.23 1.715,2.23h.012z"/>
 <path d="m7.694,435.592h-2.975l-.3,2.003c.18-.024.348-.048.636-.048 .6,0 1.199.132 1.679.42 .611.348 1.115,1.02 1.115,2.002 0,1.523-1.211,2.663-2.902,2.663-.852,0-1.571-.239-1.943-.479l.264-.804c.324.192.959.432 1.667.432 .996,0 1.847-.647 1.847-1.69-.012-1.008-.684-1.728-2.243-1.728-.444,0-.792.048-1.08.084l.504-3.742h3.73v.887h.001z"/>
 <path d="m12.458,442.5v-2.123h-3.622v-.695l3.479-4.978h1.139v4.846h1.091v.827h-1.091v2.123h-.996zm0-2.95v-2.603c0-.408.012-.816.036-1.224h-.036c-.24.456-.432.792-.647,1.151l-1.907,2.65v.024h2.554v.002z"/>
 <path d="m152.694,435.592h-2.975l-.3,2.003c.18-.024.348-.048.636-.048 .6,0 1.199.132 1.679.42 .611.348 1.115,1.02 1.115,2.002 0,1.523-1.211,2.663-2.902,2.663-.852,0-1.571-.239-1.943-.479l.264-.804c.324.192.959.432 1.667.432 .996,0 1.847-.647 1.847-1.69-.012-1.008-.684-1.728-2.243-1.728-.444,0-.792.048-1.08.084l.504-3.742h3.73v.887h.001z"/>
 <path d="m158.85,435.592h-2.975l-.3,2.003c.18-.024.348-.048.636-.048 .6,0 1.199.132 1.679.42 .611.348 1.115,1.02 1.115,2.002 0,1.523-1.211,2.663-2.902,2.663-.852,0-1.571-.239-1.943-.479l.264-.804c.324.192.959.432 1.667.432 .996,0 1.847-.647 1.847-1.69-.012-1.008-.684-1.728-2.243-1.728-.444,0-.792.048-1.08.084l.504-3.742h3.73v.887h.001z"/>
 <path d="m259.694,435.592h-2.975l-.3,2.003c.18-.024.348-.048.636-.048 .6,0 1.199.132 1.679.42 .611.348 1.115,1.02 1.115,2.002 0,1.523-1.211,2.663-2.902,2.663-.852,0-1.571-.239-1.943-.479l.264-.804c.324.192.959.432 1.667.432 .996,0 1.847-.647 1.847-1.69-.012-1.008-.684-1.728-2.243-1.728-.444,0-.792.048-1.08.084l.504-3.742h3.73v.887h.001z"/>
 <path d="m265.646,435.448c-.216-.012-.492,0-.792.049-1.655.275-2.531,1.486-2.71,2.77h.036c.372-.491 1.02-.898 1.883-.898 1.379,0 2.351.995 2.351,2.518 0,1.428-.972,2.747-2.59,2.747-1.667,0-2.759-1.296-2.759-3.322 0-1.535.552-2.746 1.319-3.514 .647-.636 1.511-1.032 2.495-1.151 .312-.049.576-.061.768-.061v.862h-.001zm-1.812,6.369c.899,0 1.511-.756 1.511-1.871s-.636-1.787-1.607-1.787c-.636,0-1.224.396-1.511.959-.072.121-.12.276-.12.469 .024,1.283.612,2.23 1.715,2.23h.012z"/>
 <path d="m295.694,435.592h-2.975l-.3,2.003c.18-.024.348-.048.636-.048 .6,0 1.199.132 1.68.42 .611.348 1.115,1.02 1.115,2.002 0,1.523-1.212,2.663-2.902,2.663-.852,0-1.572-.239-1.943-.479l.264-.804c.324.192.959.432 1.667.432 .995,0 1.847-.647 1.847-1.69-.012-1.008-.684-1.728-2.242-1.728-.443,0-.792.048-1.08.084l.504-3.742h3.73v.887h-.001z"/>
 <path d="m302.26 434.7v0.696l-3.395 7.1h-1.091l3.382-6.896v-0.023h-3.813v-0.876h4.917v-1e-3z"/>
 <path d="m368.694,435.592h-2.975l-.3,2.003c.18-.024.348-.048.636-.048 .6,0 1.199.132 1.68.42 .611.348 1.115,1.02 1.115,2.002 0,1.523-1.212,2.663-2.902,2.663-.852,0-1.572-.239-1.943-.479l.264-.804c.324.192.959.432 1.667.432 .995,0 1.847-.647 1.847-1.69-.012-1.008-.684-1.728-2.242-1.728-.443,0-.792.048-1.08.084l.504-3.742h3.73v.887h-.001z"/>
 <path d="m371.635,438.399c-.863-.408-1.235-1.08-1.235-1.751 0-1.235 1.044-2.075 2.411-2.075 1.511,0 2.266.947 2.266,1.919 0,.659-.323,1.367-1.283,1.823v.035c.973.385 1.572,1.068 1.572,2.016 0,1.355-1.164,2.267-2.651,2.267-1.631,0-2.614-.972-2.614-2.11 0-.984.588-1.68 1.547-2.088l-.013-.036zm2.662,2.074c0-.947-.659-1.402-1.715-1.703-.911.264-1.403.864-1.403,1.607-.036.792.563,1.487 1.56,1.487 .947.001 1.558-.599 1.558-1.391zm-2.902-3.897c0,.78.588,1.199 1.487,1.439 .672-.228 1.188-.708 1.188-1.415 0-.624-.372-1.271-1.319-1.271-.876,0-1.356.576-1.356,1.247z"/>
 <path d="m476.194,435.592h-2.975l-.3,2.003c.18-.024.348-.048.636-.048 .6,0 1.199.132 1.68.42 .611.348 1.115,1.02 1.115,2.003 0,1.522-1.212,2.662-2.902,2.662-.852,0-1.572-.24-1.943-.479l.264-.804c.324.192.959.432 1.667.432 .995,0 1.847-.647 1.847-1.691-.012-1.007-.684-1.727-2.242-1.727-.443,0-.792.048-1.08.084l.504-3.742h3.73v.887h-.001z"/>
 <path d="m478.307,441.757c.229.023.492,0 .852-.036 .612-.084 1.188-.336 1.631-.756 .517-.468.889-1.151 1.032-2.075h-.036c-.432.528-1.055.84-1.835.84-1.403,0-2.303-1.056-2.303-2.387 0-1.476 1.067-2.771 2.663-2.771s2.578,1.295 2.578,3.286c0,1.715-.576,2.915-1.344,3.658-.6.588-1.427.947-2.266,1.043-.385.061-.721.072-.973.061v-.863h.001zm1.907-6.381c-.888,0-1.522.792-1.522,1.895 0,.972.588,1.655 1.498,1.655 .708,0 1.26-.348 1.535-.815 .061-.096.097-.216.097-.384 0-1.331-.491-2.351-1.595-2.351h-.013z"/>
 <path d="m116.49,471.448c-.216-.012-.492,0-.792.049-1.655.275-2.531,1.486-2.71,2.77h.036c.372-.491 1.02-.898 1.883-.898 1.379,0 2.351.995 2.351,2.518 0,1.428-.972,2.747-2.591,2.747-1.667,0-2.758-1.296-2.758-3.322 0-1.535.552-2.746 1.319-3.514 .647-.636 1.511-1.032 2.495-1.151 .312-.049.576-.061.768-.061v.862h-.001zm-1.811,6.369c.899,0 1.511-.756 1.511-1.871s-.636-1.787-1.607-1.787c-.636,0-1.224.396-1.511.959-.072.121-.12.276-.12.469 .024,1.283.612,2.23 1.715,2.23h.012z"/>
 <path d="m123.377,474.518c0,2.651-.983,4.114-2.71,4.114-1.523,0-2.555-1.427-2.579-4.006 0-2.614 1.127-4.054 2.71-4.054 1.643.001 2.579,1.464 2.579,3.946zm-4.233.121c0,2.026.624,3.178 1.583,3.178 1.08,0 1.595-1.26 1.595-3.25 0-1.919-.492-3.179-1.583-3.179-.924,0-1.595,1.128-1.595,3.251z"/>
 <path d="m223.49,471.448c-.216-.012-.492,0-.792.049-1.655.275-2.531,1.486-2.71,2.77h.036c.372-.491 1.02-.898 1.883-.898 1.379,0 2.351.995 2.351,2.518 0,1.428-.972,2.747-2.591,2.747-1.667,0-2.758-1.296-2.758-3.322 0-1.535.552-2.746 1.319-3.514 .647-.636 1.511-1.032 2.495-1.151 .312-.049.576-.061.768-.061v.862h-.001zm-1.811,6.369c.899,0 1.511-.756 1.511-1.871s-.636-1.787-1.607-1.787c-.636,0-1.224.396-1.511.959-.072.121-.12.276-.12.469 .024,1.283.612,2.23 1.715,2.23h.012z"/>
 <path d="m227.487,471.688h-.024l-1.355.732-.204-.805 1.703-.911h.9v7.796h-1.02v-6.812z"/>
 <path d="m331.49,471.448c-.216-.012-.491,0-.792.049-1.654.275-2.53,1.486-2.71,2.77h.036c.371-.491 1.02-.898 1.883-.898 1.379,0 2.351.995 2.351,2.518 0,1.428-.972,2.747-2.591,2.747-1.667,0-2.758-1.296-2.758-3.322 0-1.535.551-2.746 1.318-3.514 .648-.636 1.512-1.032 2.495-1.151 .312-.049.575-.061.768-.061v.862zm-1.812,6.369c.9,0 1.512-.756 1.512-1.871s-.636-1.787-1.607-1.787c-.635,0-1.223.396-1.511.959-.072.121-.12.276-.12.469 .023,1.283.611,2.23 1.715,2.23h.011z"/>
 <path d="m333.196,478.5v-.647l.828-.804c1.99-1.895 2.891-2.902 2.902-4.078 0-.791-.385-1.523-1.547-1.523-.708,0-1.296.36-1.656.66l-.336-.744c.541-.455 1.309-.791 2.207-.791 1.68,0 2.387,1.151 2.387,2.267 0,1.439-1.043,2.603-2.686,4.187l-.624.575v.024h3.502v.875h-4.977v-.001z"/>
 <path d="m404.49,471.448c-.216-.012-.491,0-.792.049-1.654.275-2.53,1.486-2.71,2.77h.036c.371-.491 1.02-.898 1.883-.898 1.379,0 2.351.995 2.351,2.518 0,1.428-.972,2.747-2.591,2.747-1.667,0-2.758-1.296-2.758-3.322 0-1.535.551-2.746 1.318-3.514 .648-.636 1.512-1.032 2.495-1.151 .312-.049.575-.061.768-.061v.862zm-1.812,6.369c.9,0 1.512-.756 1.512-1.871s-.636-1.787-1.607-1.787c-.635,0-1.223.396-1.511.959-.072.121-.12.276-.12.469 .023,1.283.611,2.23 1.715,2.23h.011z"/>
 <path d="m406.448,477.29c.3.191.996.491 1.727.491 1.355,0 1.775-.863 1.764-1.511-.012-1.092-.996-1.56-2.016-1.56h-.587v-.792h.587c.768,0 1.74-.395 1.74-1.318 0-.624-.396-1.176-1.367-1.176-.624,0-1.225.275-1.56.516l-.276-.768c.408-.3 1.199-.6 2.039-.6 1.535,0 2.23.912 2.23,1.859 0,.803-.479,1.486-1.439,1.834v.025c.96.191 1.74.91 1.74,2.002 0,1.248-.973,2.339-2.843,2.339-.876,0-1.644-.276-2.026-.528l.287-.813z"/>
 <path d="m440.49,471.448c-.216-.012-.491,0-.792.049-1.654.275-2.53,1.486-2.71,2.77h.036c.371-.491 1.02-.898 1.883-.898 1.379,0 2.351.995 2.351,2.518 0,1.428-.972,2.747-2.591,2.747-1.667,0-2.758-1.296-2.758-3.322 0-1.535.551-2.746 1.318-3.514 .648-.636 1.512-1.032 2.495-1.151 .312-.049.575-.061.768-.061v.862zm-1.812,6.369c.9,0 1.512-.756 1.512-1.871s-.636-1.787-1.607-1.787c-.635,0-1.223.396-1.511.959-.072.121-.12.276-.12.469 .023,1.283.611,2.23 1.715,2.23h.011z"/>
 <path d="m445.458,478.5v-2.123h-3.621v-.695l3.479-4.978h1.139v4.846h1.092v.827h-1.092v2.123h-.997zm0-2.95v-2.603c0-.408.013-.816.037-1.224h-.037c-.239.456-.432.792-.646,1.151l-1.907,2.65v.024h2.553v.002z"/>
 <path d="m80.49,507.449c-.216-.013-.492,0-.792.048-1.655.275-2.531,1.487-2.71,2.771h.036c.372-.492 1.02-.899 1.883-.899 1.379,0 2.351.995 2.351,2.519 0,1.427-.972,2.746-2.591,2.746-1.667,0-2.758-1.295-2.758-3.322 0-1.535.552-2.746 1.319-3.514 .647-.636 1.511-1.031 2.495-1.151 .312-.048.576-.061.768-.061v.863h-.001zm-1.811,6.368c.899,0 1.511-.756 1.511-1.871s-.636-1.787-1.607-1.787c-.636,0-1.224.396-1.511.96-.072.12-.12.275-.12.468 .024,1.283.612,2.23 1.715,2.23h.012z"/>
 <path d="m86.85,507.592h-2.975l-.3,2.003c.18-.024.348-.048.636-.048 .6,0 1.199.132 1.679.42 .611.348 1.115,1.02 1.115,2.003 0,1.522-1.211,2.662-2.902,2.662-.852,0-1.571-.24-1.943-.479l.264-.804c.324.192.959.432 1.667.432 .996,0 1.847-.647 1.847-1.691-.012-1.007-.684-1.727-2.243-1.727-.444,0-.792.048-1.08.084l.504-3.742h3.73v.887h.001z"/>
 <path d="m188.49,507.448c-.216-.012-.492,0-.792.049-1.655.275-2.531,1.486-2.71,2.77h.036c.372-.491 1.02-.898 1.883-.898 1.379,0 2.351.995 2.351,2.518 0,1.428-.972,2.747-2.591,2.747-1.667,0-2.758-1.296-2.758-3.322 0-1.535.552-2.746 1.319-3.514 .647-.636 1.511-1.032 2.495-1.151 .312-.049.576-.061.768-.061v.862h-.001zm-1.811,6.369c.899,0 1.511-.756 1.511-1.871s-.636-1.787-1.607-1.787c-.636,0-1.224.396-1.511.959-.072.121-.12.276-.12.469 .024,1.283.612,2.23 1.715,2.23h.012z"/>
 <path d="m194.646,507.448c-.216-.012-.492,0-.792.049-1.655.275-2.531,1.486-2.71,2.77h.036c.372-.491 1.02-.898 1.883-.898 1.379,0 2.351.995 2.351,2.518 0,1.428-.972,2.747-2.59,2.747-1.667,0-2.759-1.296-2.759-3.322 0-1.535.552-2.746 1.319-3.514 .647-.636 1.511-1.032 2.495-1.151 .312-.049.576-.061.768-.061v.862h-.001zm-1.812,6.369c.899,0 1.511-.756 1.511-1.871s-.636-1.787-1.607-1.787c-.636,0-1.224.396-1.511.959-.072.121-.12.276-.12.469 .024,1.283.612,2.23 1.715,2.23h.012z"/>
 <path d="m332.49,507.448c-.216-.012-.491,0-.792.049-1.654.275-2.53,1.486-2.71,2.77h.036c.371-.491 1.02-.898 1.883-.898 1.379,0 2.351.995 2.351,2.518 0,1.428-.972,2.747-2.591,2.747-1.667,0-2.758-1.296-2.758-3.322 0-1.535.551-2.746 1.318-3.514 .648-.636 1.512-1.032 2.495-1.151 .312-.049.575-.061.768-.061v.862zm-1.812,6.369c.9,0 1.512-.756 1.512-1.871s-.636-1.787-1.607-1.787c-.635,0-1.223.396-1.511.959-.072.121-.12.276-.12.469 .023,1.283.611,2.23 1.715,2.23h.011z"/>
 <path d="m339.26 506.7v0.696l-3.395 7.1h-1.091l3.382-6.896v-0.023h-3.813v-0.876h4.917v-1e-3z"/>
 <path d="m368.49,507.448c-.216-.012-.491,0-.792.049-1.654.275-2.53,1.486-2.71,2.77h.036c.371-.491 1.02-.898 1.883-.898 1.379,0 2.351.995 2.351,2.518 0,1.428-.972,2.747-2.591,2.747-1.667,0-2.758-1.296-2.758-3.322 0-1.535.551-2.746 1.318-3.514 .648-.636 1.512-1.032 2.495-1.151 .312-.049.575-.061.768-.061v.862zm-1.812,6.369c.9,0 1.512-.756 1.512-1.871s-.636-1.787-1.607-1.787c-.635,0-1.223.396-1.511.959-.072.121-.12.276-.12.469 .023,1.283.611,2.23 1.715,2.23h.011z"/>
 <path d="m371.635,510.399c-.863-.408-1.235-1.08-1.235-1.751 0-1.235 1.044-2.075 2.411-2.075 1.511,0 2.266.947 2.266,1.919 0,.659-.323,1.367-1.283,1.823v.035c.973.385 1.572,1.068 1.572,2.016 0,1.355-1.164,2.267-2.651,2.267-1.631,0-2.614-.972-2.614-2.11 0-.984.588-1.68 1.547-2.088l-.013-.036zm2.662,2.074c0-.947-.659-1.402-1.715-1.703-.911.264-1.403.864-1.403,1.607-.036.792.563,1.487 1.56,1.487 .947.001 1.558-.599 1.558-1.391zm-2.902-3.897c0,.78.588,1.199 1.487,1.439 .672-.228 1.188-.708 1.188-1.415 0-.624-.372-1.271-1.319-1.271-.876,0-1.356.576-1.356,1.247z"/>
 <path d="m475.99,507.448c-.216-.012-.491,0-.792.049-1.654.275-2.53,1.486-2.71,2.77h.036c.371-.491 1.02-.898 1.883-.898 1.379,0 2.351.995 2.351,2.518 0,1.428-.972,2.747-2.591,2.747-1.667,0-2.758-1.296-2.758-3.322 0-1.535.551-2.746 1.318-3.514 .648-.636 1.512-1.032 2.495-1.151 .312-.049.575-.061.768-.061v.862zm-1.812,6.369c.9,0 1.512-.756 1.512-1.871s-.636-1.787-1.607-1.787c-.635,0-1.223.396-1.511.959-.072.121-.12.276-.12.469 .023,1.283.611,2.23 1.715,2.23h.011z"/>
 <path d="m478.307,513.756c.229.024.492,0 .852-.035 .612-.084 1.188-.336 1.631-.756 .517-.468.889-1.151 1.032-2.074h-.036c-.432.527-1.055.839-1.835.839-1.403,0-2.303-1.056-2.303-2.387 0-1.476 1.067-2.771 2.663-2.771s2.578,1.295 2.578,3.286c0,1.716-.576,2.915-1.344,3.658-.6.587-1.427.947-2.266,1.044-.385.06-.721.071-.973.06v-.864h.001zm1.907-6.38c-.888,0-1.522.792-1.522,1.896 0,.971.588,1.654 1.498,1.654 .708,0 1.26-.348 1.535-.815 .061-.096.097-.216.097-.384 0-1.331-.491-2.351-1.595-2.351h-.013z"/>
 <path d="m8.102,543.705v.696l-3.394,7.1h-1.092l3.382-6.896v-.023h-3.814v-.876h4.918v-.001z"/>
 <path d="m14.377,547.518c0,2.651-.983,4.114-2.71,4.114-1.523,0-2.555-1.427-2.579-4.006 0-2.614 1.127-4.054 2.71-4.054 1.643.001 2.579,1.464 2.579,3.946zm-4.233.121c0,2.026.624,3.178 1.583,3.178 1.08,0 1.595-1.26 1.595-3.25 0-1.919-.492-3.179-1.583-3.179-.924,0-1.595,1.128-1.595,3.251z"/>
 <path d="m369.1 543.7v0.696l-3.394 7.1h-1.092l3.382-6.896v-0.023h-3.813v-0.876h4.917v-1e-3z"/>
 <path d="m372.487,544.688h-.023l-1.355.731-.204-.803 1.703-.912h.899v7.796h-1.02v-6.812z"/>
</svg>
